# xmcd CD database file
#
# Track frame offsets:
#	150
#	36336
#	71851
#	104506
#	140349
#	165445
#	171444
#	198584
#	226249
#
# Disc length: 3389 seconds
#
# Revision: 0
# Processed by: cddbd v1.5.2PL0 Copyright (c) Steve Scherf et al.
# Submitted via: CDex 1.51
#
DISCID=800d3b09
DTITLE=Tobias Hoffmann's Fallschirme - Zwei
DYEAR=2010
DGENRE=Jazz
TTITLE0=Fahrstreifen
TTITLE1=Marsch im Herbstlaub
TTITLE2=Objekte im Spiegel
TTITLE3=Talbrücke - Flutbrücke
TTITLE4=Wölfe
TTITLE5=Schafe
TTITLE6=Schwebebahn
TTITLE7=Blatt - Nadel
TTITLE8=Aufbruch
EXTD=YEAR: 2010
EXTT0=
EXTT1=
EXTT2=
EXTT3=
EXTT4=
EXTT5=
EXTT6=
EXTT7=
EXTT8=
PLAYORDER=
